<svg xmlns="http://www.w3.org/2000/svg" xmlns:xlink="http://www.w3.org/1999/xlink" viewBox="0 0 304.125 53.625"><defs><path id="a" d="M0 0h304.125v53.625H0z"/></defs><clipPath id="b"><use xlink:href="#a" overflow="visible"/></clipPath><path clip-path="url(#b)" fill="#2D3F82" d="M18.987 5.403c-2.763 0-4.992.876-6.686 2.627s-3.088 4.628-4.182 8.633c-.948 3.474-1.034 5.92-.256 7.341.778 1.421 2.598 2.132 5.462 2.132H24.29l-1.505 5.511H11.497c-2.49 0-4.389-.213-5.698-.636s-2.453-1.137-3.43-2.142C1.095 27.577.335 25.894.089 23.82c-.247-2.074.024-4.553.812-7.438 1.528-5.598 3.872-9.727 7.032-12.39C11.091 1.332 15.225 0 20.334 0H31.43l-1.476 5.404H18.987zM35.83 0h14.484c2.446 0 4.362.126 5.746.377 1.386.252 2.435.65 3.15 1.195 1.188.919 1.95 2.121 2.285 3.606.335 1.486.238 3.197-.291 5.135-.517 1.894-1.263 3.52-2.238 4.876s-2.202 2.48-3.683 3.369a13.293 13.293 0 0 1-3.999 1.561c-1.43.309-3.533.463-6.311.463h-8.095l-3.022 11.065h-6.67L35.83 0zm12.857 5.641h-7.728l-2.552 9.344h8.138c2.015 0 3.616-.384 4.805-1.152 1.188-.768 1.998-1.941 2.429-3.52.463-1.694.312-2.896-.451-3.606-.763-.711-2.31-1.066-4.641-1.066M76.65 0h7.08l4.891 31.647h-7.426l-.856-7.535H66.546l-4.886 7.535h-7.08L76.65 0zm1.564 6.286l-7.969 12.186H79.7L78.214 6.286zM185.644 14.969h-25.5a1.128 1.128 0 0 1-1.125-1.125v-2c0-.619.506-1.125 1.125-1.125h25.5c.619 0 1.125.506 1.125 1.125v2c0 .619-.506 1.125-1.125 1.125M185.644 20.928h-25.5a1.128 1.128 0 0 1-1.125-1.125v-2c0-.619.506-1.125 1.125-1.125h25.5c.619 0 1.125.506 1.125 1.125v2c0 .619-.506 1.125-1.125 1.125M156.305 20.928h-25.5a1.128 1.128 0 0 1-1.125-1.125v-2c0-.619.506-1.125 1.125-1.125h25.5c.618 0 1.125.506 1.125 1.125v2c0 .619-.507 1.125-1.125 1.125M156.305 26.886h-25.5a1.128 1.128 0 0 1-1.125-1.125v-2c0-.619.506-1.125 1.125-1.125h25.5c.618 0 1.125.506 1.125 1.125v2c0 .619-.507 1.125-1.125 1.125M126.965 20.928h-25.5a1.128 1.128 0 0 1-1.125-1.125v-2c0-.619.506-1.125 1.125-1.125h25.5c.619 0 1.125.506 1.125 1.125v2c0 .619-.506 1.125-1.125 1.125M273.661 14.969h-25.5a1.128 1.128 0 0 1-1.125-1.125v-2c0-.619.506-1.125 1.125-1.125h25.5c.619 0 1.125.506 1.125 1.125v2c0 .619-.506 1.125-1.125 1.125M273.661 20.928h-25.5a1.128 1.128 0 0 1-1.125-1.125v-2c0-.619.506-1.125 1.125-1.125h25.5c.619 0 1.125.506 1.125 1.125v2c0 .619-.506 1.125-1.125 1.125M303 9.011h-25.5a1.128 1.128 0 0 1-1.125-1.125v-2c0-.619.506-1.125 1.125-1.125H303c.619 0 1.125.506 1.125 1.125v2c0 .619-.506 1.125-1.125 1.125M244.321 26.886h-25.5a1.129 1.129 0 0 1-1.125-1.125v-2c0-.619.507-1.125 1.125-1.125h25.5c.619 0 1.125.506 1.125 1.125v2c0 .619-.506 1.125-1.125 1.125M214.982 20.928h-25.5a1.128 1.128 0 0 1-1.125-1.125v-2c0-.619.506-1.125 1.125-1.125h25.5c.619 0 1.125.506 1.125 1.125v2c0 .619-.505 1.125-1.125 1.125M214.982 26.886h-25.5a1.128 1.128 0 0 1-1.125-1.125v-2c0-.619.506-1.125 1.125-1.125h25.5c.619 0 1.125.506 1.125 1.125v2c0 .619-.505 1.125-1.125 1.125M7.105 41.452c-.968 0-1.733.308-2.296.923s-1 1.625-1.313 3.031c-.271 1.22-.258 2.079.039 2.578.298.499.948.748 1.951.748h3.841l-.431 1.937H4.942c-.872 0-1.541-.075-2.007-.224a3.075 3.075 0 0 1-1.239-.753c-.469-.452-.764-1.044-.887-1.771-.123-.729-.072-1.601.154-2.613.437-1.965 1.185-3.416 2.245-4.351 1.059-.936 2.484-1.402 4.274-1.402h3.886l-.422 1.897H7.105zM19.413 46.593c-.285 1.279-.902 2.302-1.85 3.065-.949.764-2.084 1.146-3.404 1.146-1.321 0-2.289-.383-2.905-1.149-.616-.766-.782-1.787-.498-3.062.284-1.28.905-2.306 1.862-3.074.958-.769 2.096-1.152 3.417-1.152 1.311 0 2.272.384 2.885 1.152.613.769.777 1.794.493 3.074m-6.397 0c-.173.775-.125 1.381.141 1.814s.725.65 1.375.65c.645 0 1.2-.217 1.665-.65.464-.434.782-1.039.955-1.814.172-.776.124-1.38-.146-1.812-.27-.431-.729-.646-1.379-.646-.645 0-1.199.217-1.661.65-.462.435-.778 1.037-.95 1.808M21.636 42.51h4.052c1.226 0 2.049.23 2.47.691.422.461.514 1.227.277 2.295l-1.15 5.171H25.13l1.091-4.906c.135-.61.129-1.006-.02-1.188-.148-.181-.508-.271-1.077-.271h-1.732l-1.415 6.365h-2.155l1.814-8.157zM30.119 42.51h1.52l.657-2.956h2.154l-.657 2.956h2.276l-.362 1.626h-2.275l-.733 3.296c-.135.604-.125 1.023.03 1.259.154.234.489.352 1.003.352h.884l-.361 1.625H32.29c-.797 0-1.358-.221-1.683-.661-.325-.44-.397-1.072-.214-1.894l.884-3.977h-1.519l.361-1.626zM37.34 42.51h3.621c.847 0 1.407.152 1.679.458.273.305.324.837.155 1.599l-.302 1.361h-2.057l.234-1.052c.07-.317.061-.53-.028-.639-.09-.108-.336-.163-.739-.163h-.757l-1.465 6.593h-2.155l1.814-8.157zM51.826 46.593c-.285 1.279-.902 2.302-1.85 3.065-.949.764-2.084 1.146-3.404 1.146-1.321 0-2.289-.383-2.905-1.149-.616-.766-.782-1.787-.498-3.062.284-1.28.905-2.306 1.862-3.074.958-.769 2.096-1.152 3.417-1.152 1.311 0 2.272.384 2.885 1.152.613.769.777 1.794.493 3.074m-6.397 0c-.173.775-.125 1.381.141 1.814s.725.65 1.375.65c.645 0 1.2-.217 1.665-.65.464-.434.782-1.039.955-1.814.172-.776.124-1.38-.146-1.812-.27-.431-.729-.646-1.379-.646-.645 0-1.199.217-1.661.65-.462.435-.778 1.037-.95 1.808M54.45 50.668h-2.245l2.471-11.114h2.245zM66.191 48.869h1.731l1.414-6.359h2.155l-1.765 7.939c-.24 1.079-.67 1.877-1.289 2.396-.62.52-1.449.779-2.487.779h-4.227l.369-1.656h3.856c.413 0 .753-.1 1.019-.299.266-.199.441-.487.525-.866l.03-.136h-1.905c-1.22 0-2.036-.24-2.448-.722-.412-.481-.493-1.284-.243-2.408l1.117-5.028h2.133l-1.081 4.862c-.137.615-.135 1.018.007 1.21.142.192.504.288 1.089.288M80.299 39.553h5.073c.858 0 1.531.044 2.02.132.489.09.864.229 1.124.421a2.3 2.3 0 0 1 .864 1.266c.143.521.14 1.124-.012 1.804-.148.665-.38 1.236-.698 1.713-.317.477-.728.87-1.231 1.184-.42.257-.878.439-1.373.548-.496.107-1.229.162-2.202.162h-2.836l-.864 3.886h-2.336l2.471-11.116zm4.602 1.982h-2.707l-.729 3.282h2.85c.706 0 1.26-.136 1.662-.405.403-.271.666-.682.79-1.236.132-.595.058-1.017-.222-1.267-.278-.249-.826-.374-1.644-.374M90.915 42.51h3.621c.847 0 1.407.152 1.679.458.273.305.324.837.155 1.599l-.302 1.361h-2.057l.234-1.052c.07-.317.061-.53-.028-.639-.09-.108-.336-.163-.739-.163h-.757l-1.465 6.593h-2.155l1.814-8.157zM105.401 46.593c-.285 1.279-.902 2.302-1.85 3.065-.949.764-2.084 1.146-3.404 1.146-1.321 0-2.289-.383-2.905-1.149-.616-.766-.782-1.787-.498-3.062.284-1.28.905-2.306 1.862-3.074.958-.769 2.096-1.152 3.417-1.152 1.311 0 2.272.384 2.885 1.152s.777 1.794.493 3.074m-6.397 0c-.173.775-.125 1.381.141 1.814.266.434.725.65 1.375.65.645 0 1.2-.217 1.665-.65.464-.434.782-1.039.955-1.814.172-.776.124-1.38-.146-1.812-.27-.431-.729-.646-1.379-.646-.645 0-1.199.217-1.661.65-.462.435-.778 1.037-.95 1.808M106.815 42.51h1.52l.657-2.956h2.154l-.657 2.956h2.276l-.362 1.626h-2.275l-.733 3.296c-.135.604-.125 1.023.03 1.259.154.234.489.352 1.003.352h.884l-.361 1.625h-1.965c-.797 0-1.358-.221-1.683-.661-.325-.44-.397-1.072-.214-1.894l.884-3.977h-1.519l.361-1.626zM115.858 50.668c-1.351 0-2.296-.345-2.836-1.032-.54-.688-.662-1.702-.364-3.043.299-1.341.872-2.357 1.721-3.047.85-.691 1.947-1.036 3.293-1.036h3.145l-.378 1.701h-2.851c-.781 0-1.331.11-1.65.333-.319.222-.553.621-.702 1.201h4.862l-.379 1.701h-4.861c-.11.585-.064.984.138 1.198.202.215.708.322 1.52.322h2.865l-.378 1.701h-3.145zM125.213 48.921h2.291l-.388 1.747h-2.926c-.741 0-1.333-.077-1.775-.231a2.322 2.322 0 0 1-1.078-.745c-.295-.373-.49-.827-.585-1.364a4.313 4.313 0 0 1 .058-1.704 5.78 5.78 0 0 1 .71-1.767 5.128 5.128 0 0 1 1.197-1.372 4.212 4.212 0 0 1 1.425-.744c.515-.154 1.136-.23 1.862-.23h2.926l-.392 1.761h-2.291c-1.013 0-1.75.176-2.211.526-.461.35-.788.959-.981 1.826-.111.499-.124.912-.041 1.239s.266.593.549.794c.14.097.313.165.518.204.206.04.584.06 1.132.06M133.372 48.921h2.291l-.388 1.747h-2.926c-.741 0-1.333-.077-1.775-.231a2.322 2.322 0 0 1-1.078-.745c-.295-.373-.49-.827-.585-1.364a4.313 4.313 0 0 1 .058-1.704 5.78 5.78 0 0 1 .71-1.767 5.128 5.128 0 0 1 1.197-1.372 4.212 4.212 0 0 1 1.425-.744c.515-.154 1.136-.23 1.862-.23h2.926l-.392 1.761h-2.291c-1.013 0-1.75.176-2.211.526-.461.35-.788.959-.981 1.826-.111.499-.124.912-.041 1.239s.266.593.549.794c.14.097.313.165.518.204.205.04.583.06 1.132.06M140.977 41.58h-2.261l.451-2.025h2.26l-.45 2.025zm-2.021 9.088h-2.26l1.813-8.158h2.261l-1.814 8.158zM149.835 46.593c-.285 1.279-.902 2.302-1.85 3.065-.949.764-2.083 1.146-3.404 1.146-1.321 0-2.289-.383-2.905-1.149-.616-.766-.782-1.787-.498-3.062.284-1.28.905-2.306 1.862-3.074.958-.768 2.097-1.152 3.417-1.152 1.311 0 2.273.385 2.886 1.152.613.769.778 1.794.492 3.074m-6.397 0c-.172.775-.125 1.381.141 1.814.267.434.725.65 1.376.65.644 0 1.199-.217 1.664-.65.464-.434.782-1.039.955-1.814.173-.776.124-1.38-.146-1.812-.269-.431-.729-.646-1.379-.646-.645 0-1.199.217-1.661.65-.462.435-.778 1.037-.95 1.808m3.963-7.213h2.23l-3.125 2.154h-1.088l1.983-2.154zM152.059 42.51h4.052c1.226 0 2.049.23 2.47.691.422.461.515 1.227.277 2.295l-1.15 5.171h-2.154l1.091-4.906c.135-.61.129-1.006-.021-1.188-.147-.181-.508-.271-1.076-.271h-1.732l-1.415 6.365h-2.155l1.813-8.157zM171.406 39.553h2.479l2.27 11.114h-2.602l-.432-2.646h-4.832l-1.579 2.646h-2.479l7.175-11.114zm.658 2.208l-2.577 4.279h3.312l-.735-4.279zM178.528 42.51h8.271c1.199 0 2.012.233 2.438.702.424.47.521 1.23.285 2.284l-1.149 5.171h-2.17l1.087-4.892c.135-.6.132-.995-.008-1.188-.139-.19-.49-.286-1.055-.286h-1.21l-1.415 6.365h-2.201l1.416-6.365H180.3l-1.415 6.365h-2.17l1.813-8.156zM194.935 39.554l-.657 2.956h1.853c.816 0 1.449.097 1.9.291.451.193.803.516 1.056.964.215.374.346.785.392 1.236s.009.946-.111 1.485c-.292 1.311-.87 2.335-1.735 3.073-.863.738-1.922 1.107-3.172 1.107h-4.149l2.471-11.113h2.152zm.266 4.718h-1.316l-1.033 4.649h1.482c.821 0 1.437-.173 1.847-.518.408-.346.705-.931.89-1.758.188-.853.142-1.461-.143-1.826-.283-.364-.86-.547-1.727-.547M204.033 41.58h-2.261l.45-2.025h2.261l-.45 2.025zm-2.02 9.088h-2.261l1.813-8.158h2.261l-1.813 8.158zM207.509 50.668c-1.352 0-2.296-.345-2.836-1.032-.54-.688-.661-1.702-.363-3.043s.872-2.357 1.721-3.047c.85-.691 1.946-1.036 3.292-1.036h3.146l-.379 1.701h-2.851c-.78 0-1.332.11-1.649.333-.319.222-.553.621-.703 1.201h4.862l-.378 1.701h-4.862c-.109.585-.063.984.138 1.198.202.215.709.322 1.521.322h2.865l-.378 1.701h-3.146zM213.845 42.51h4.053c1.226 0 2.047.23 2.47.691.422.461.514 1.227.276 2.295l-1.15 5.171h-2.154l1.091-4.906c.136-.61.129-1.006-.021-1.188-.147-.181-.508-.271-1.076-.271h-1.732l-1.415 6.365h-2.155l1.813-8.157zM222.328 42.51h1.519l.657-2.956h2.156l-.657 2.956h2.275l-.361 1.626h-2.276l-.732 3.296c-.135.604-.125 1.023.029 1.259.154.234.489.352 1.003.352h.886l-.362 1.625h-1.966c-.796 0-1.357-.221-1.683-.661s-.396-1.072-.215-1.894l.886-3.977h-1.52l.361-1.626zM229.715 42.51h4.416c1.112 0 1.895.256 2.346.767.451.513.564 1.272.341 2.28l-1.137 5.111h-5.792c-.812 0-1.391-.204-1.734-.612-.346-.409-.435-.989-.268-1.74.206-.927.604-1.592 1.196-1.996.592-.402 1.469-.604 2.634-.604h2.835l.045-.204c.107-.483.041-.824-.2-1.02-.241-.197-.728-.296-1.458-.296h-3.599l.375-1.686zm1.416 6.517h2.698l.375-1.686h-2.539c-.505 0-.867.068-1.089.204-.223.136-.371.373-.445.711-.064.287-.032.488.097.601.127.113.428.17.903.17M239.779 50.668h-2.246l2.471-11.114h2.246z"/></svg>